<svg width="1440" height="448" viewBox="0 0 1440 448" xmlns="http://www.w3.org/2000/svg">
    <!-- Background -->
    <rect width="1440" height="448" fill="#0a1628"/>
    
    <!-- Gradient overlay for depth -->
    <rect width="720" height="448" fill="#0d2847" opacity="0.5"/>
    <rect x="720" width="720" height="448" fill="#0a1628"/>
    
    <!-- Grid pattern lines -->
    <g stroke="#00d4aa" stroke-width="1" opacity="0.04">
        <line x1="0" y1="60" x2="1440" y2="60"/>
        <line x1="0" y1="120" x2="1440" y2="120"/>
        <line x1="0" y1="180" x2="1440" y2="180"/>
        <line x1="0" y1="240" x2="1440" y2="240"/>
        <line x1="0" y1="300" x2="1440" y2="300"/>
        <line x1="0" y1="360" x2="1440" y2="360"/>
        <line x1="60" y1="0" x2="60" y2="448"/>
        <line x1="120" y1="0" x2="120" y2="448"/>
        <line x1="180" y1="0" x2="180" y2="448"/>
        <line x1="240" y1="0" x2="240" y2="448"/>
        <line x1="300" y1="0" x2="300" y2="448"/>
        <line x1="360" y1="0" x2="360" y2="448"/>
        <line x1="420" y1="0" x2="420" y2="448"/>
        <line x1="480" y1="0" x2="480" y2="448"/>
        <line x1="540" y1="0" x2="540" y2="448"/>
        <line x1="600" y1="0" x2="600" y2="448"/>
        <line x1="660" y1="0" x2="660" y2="448"/>
        <line x1="720" y1="0" x2="720" y2="448"/>
        <line x1="780" y1="0" x2="780" y2="448"/>
        <line x1="840" y1="0" x2="840" y2="448"/>
        <line x1="900" y1="0" x2="900" y2="448"/>
        <line x1="960" y1="0" x2="960" y2="448"/>
        <line x1="1020" y1="0" x2="1020" y2="448"/>
        <line x1="1080" y1="0" x2="1080" y2="448"/>
        <line x1="1140" y1="0" x2="1140" y2="448"/>
        <line x1="1200" y1="0" x2="1200" y2="448"/>
        <line x1="1260" y1="0" x2="1260" y2="448"/>
        <line x1="1320" y1="0" x2="1320" y2="448"/>
        <line x1="1380" y1="0" x2="1380" y2="448"/>
    </g>
    
    <!-- Glow effects - circles with low opacity -->
    <circle cx="1150" cy="100" r="200" fill="#00d4aa" opacity="0.08"/>
    <circle cx="250" cy="380" r="180" fill="#0066ff" opacity="0.06"/>
    <circle cx="720" cy="224" r="150" fill="#00d4aa" opacity="0.05"/>
    
    <!-- Corner decorations -->
    <path d="M30 30 L30 100 M30 30 L100 30" stroke="#00d4aa" stroke-width="2" fill="none" opacity="0.3"/>
    <path d="M1410 30 L1410 100 M1410 30 L1340 30" stroke="#00d4aa" stroke-width="2" fill="none" opacity="0.3"/>
    <path d="M30 418 L30 348 M30 418 L100 418" stroke="#00d4aa" stroke-width="2" fill="none" opacity="0.3"/>
    <path d="M1410 418 L1410 348 M1410 418 L1340 418" stroke="#00d4aa" stroke-width="2" fill="none" opacity="0.3"/>
    
    <!-- Logo Mark -->
    <g transform="translate(540, 110)">
        <!-- Broadcast waves -->
        <path d="M4 25 Q18 50, 4 75" stroke="#00d4aa" stroke-width="5" fill="none" opacity="0.4"/>
        <path d="M18 15 Q38 50, 18 85" stroke="#00d4aa" stroke-width="5" fill="none" opacity="0.6"/>
        <path d="M32 5 Q58 50, 32 95" stroke="#00d4aa" stroke-width="5" fill="none" opacity="0.85"/>
        
        <!-- V letter -->
        <path d="M55 15 L90 115 L125 15 L112 15 L90 90 L68 15 Z" fill="#00d4aa"/>
        
        <!-- Play button circle -->
        <circle cx="90" cy="92" r="28" fill="#00d4aa"/>
        <polygon points="80,80 80,104 104,92" fill="#0a1628"/>
    </g>
    
    <!-- Logo Text -->
    <text x="680" y="185" font-family="Arial, Helvetica, sans-serif" font-weight="700" font-size="72" fill="#ffffff">Vouch</text>
    <text x="920" y="185" font-family="Arial, Helvetica, sans-serif" font-weight="700" font-size="72" fill="#00d4aa">Pro</text>
    
    <!-- Tagline -->
    <text x="720" y="255" font-family="Arial, Helvetica, sans-serif" font-weight="400" font-size="20" fill="#94a3b8" text-anchor="middle" letter-spacing="4">EVENT MANAGEMENT &amp; MARKETING EXCELLENCE</text>
    
    <!-- Service tags -->
    <g transform="translate(720, 305)">
        <!-- Corporate Events -->
        <rect x="-380" y="0" width="170" height="44" rx="22" fill="none" stroke="#00d4aa" stroke-opacity="0.4" stroke-width="1"/>
        <rect x="-380" y="0" width="170" height="44" rx="22" fill="#00d4aa" opacity="0.1"/>
        <text x="-295" y="28" font-family="Arial, Helvetica, sans-serif" font-weight="500" font-size="14" fill="#00d4aa" text-anchor="middle">Corporate Events</text>
        
        <!-- Brand Activation -->
        <rect x="-185" y="0" width="170" height="44" rx="22" fill="none" stroke="#00d4aa" stroke-opacity="0.4" stroke-width="1"/>
        <rect x="-185" y="0" width="170" height="44" rx="22" fill="#00d4aa" opacity="0.1"/>
        <text x="-100" y="28" font-family="Arial, Helvetica, sans-serif" font-weight="500" font-size="14" fill="#00d4aa" text-anchor="middle">Brand Activation</text>
        
        <!-- Digital Marketing -->
        <rect x="10" y="0" width="170" height="44" rx="22" fill="none" stroke="#00d4aa" stroke-opacity="0.4" stroke-width="1"/>
        <rect x="10" y="0" width="170" height="44" rx="22" fill="#00d4aa" opacity="0.1"/>
        <text x="95" y="28" font-family="Arial, Helvetica, sans-serif" font-weight="500" font-size="14" fill="#00d4aa" text-anchor="middle">Digital Marketing</text>
        
        <!-- Exhibitions -->
        <rect x="205" y="0" width="150" height="44" rx="22" fill="none" stroke="#00d4aa" stroke-opacity="0.4" stroke-width="1"/>
        <rect x="205" y="0" width="150" height="44" rx="22" fill="#00d4aa" opacity="0.1"/>
        <text x="280" y="28" font-family="Arial, Helvetica, sans-serif" font-weight="500" font-size="14" fill="#00d4aa" text-anchor="middle">Exhibitions</text>
    </g>
</svg>
